<?xml version="1.0" encoding="UTF-8"?>
<svg id="Layer_1" xmlns="http://www.w3.org/2000/svg" version="1.1" viewBox="0 0 412.07 147.08">
  <!-- Generator: Adobe Illustrator 29.6.0, SVG Export Plug-In . SVG Version: 2.1.1 Build 207)  -->
  <defs>
    <style>
      .st0 {
        fill: #3075ba;
      }

      .st1 {
        fill: #fff;
      }

      .st2 {
        fill: #353549;
      }
    </style>
  </defs>
  <g>
    <path class="st0" d="M17.37,1.18h167.14c9.59,0,17.37,7.78,17.37,17.37v111.16c0,9.59-7.78,17.37-17.37,17.37H17.37c-9.59,0-17.37-7.78-17.37-17.37V18.55C0,8.97,7.78,1.18,17.37,1.18Z"/>
    <path class="st2" d="M162.42,133.97l-3.9-1.3c-10.92-4.2-16.38-5.52-31.92-5.41-23.89.17-47.45-2.62-70.44-.69-30.01,2.53-38.66,4.2-50.99,14.84,3.15,4.22,6.54,5.68,12.2,5.68h154.2c-2.29-4.83-5.03-9.38-9.14-13.11Z"/>
    <rect class="st2" x="78" y="93.82" width="31.74" height="33.4"/>
    <rect class="st2" x="36.84" y="31.53" width="135.16" height="66.8" rx="13.96" ry="13.96"/>
    <path class="st1" d="M89.84.53c0-2.97.07-2.97,3.47-2.5v29.51h29.41V4.69c3.7-.16,3.8-.17,3.83,2.67.06,6.67,0,13.33,0,20.47,10.16,0,19.76-.07,29.36,0,10.16.09,17.52,5.62,18.38,15.77,1.04,12.33.53,24.8.53,37.21,0,2.31-.77,4.69-1.55,6.91-2.42,6.87-7.65,10.54-14.91,10.55-12.73,0-25.45-.06-38.17-.08h-20.85q5.44-5.26,5.45-12.45c0-10.48.04-20.98-.06-31.46.02-3.06-.23-6.12-.76-9.14-1.95-10.08-7.13-14.39-17.37-14.5-11.32-.12-22.65-.14-33.97-.11-8.74,0-14.17,5.45-14.17,14.09,0,13,.02,26,.06,39,.04,8.49,3.44,11.98,11.94,12.07,13,.14,26.01.18,39.03.13,7.49,0,9.59-2.23,9.62-9.88.05-11.05-.09-22.09.07-33.15.1-6.9-.32-13.53-5.6-18.86,5.02,2.52,7.66,6.87,7.78,11.97.36,14.81.27,29.64.11,44.46-.05,4.35-2.97,7.1-7.19,7.16-15.09.24-30.2.51-45.29.36-8.02-.08-12.55-4.58-12.73-12.54-.3-14.12-.33-28.24-.08-42.36.13-7.83,6.14-13.97,13.97-14.68,4.28-.4,8.66-.18,12.99-.19h26.66c0-9.5-.02-18.55.01-27.6ZM129.11,47.69c-5.24-.48-10.13,5.15-11.23,12.94-.69,4.91.26,9.46,3.26,13.44,3.34,4.42,8.66,4.81,12.74,1.1,3.42-3.13,5.43-8.02,5.39-13.13-.04-7.56-4.49-13.84-10.16-14.35ZM150.96,74.26c2.84,4.22,7.98,4.22,11.6.68,5.61-5.47,6.78-15.91,2.54-22.46s-11.86-6.3-15.2.77c-.59,1.3-1.06,2.65-1.39,4.04-1.4,5.15-.85,10.64,1.54,15.41.28.53.58,1.05.91,1.55h-.01Z"/>
    <path class="st1" d="M117.96,120.59c-.88.72-1.76,2.05-2.64,2.06-15.06.1-30.11.07-45.17-.08-.74,0-1.47-1.11-2.19-1.71.7-.47,1.36-1.26,2.11-1.35,2.83-.34,5.68-.45,8.59-.65v-9.68l-4.28-1.45c.07-.33.15-.65.23-.97h35.82v12.52h6.58l.95,1.31ZM82.46,109.45v9.26h23.04v-9.26h-23.04Z"/>
    <path class="st1" d="M67.88,50.55c7.17-.13,12.67,5.52,12.79,13.14.13,7.19-5.11,13.13-11.73,13.29-7.4.25-13.6-5.54-13.85-12.94,0-.1,0-.19,0-.29-.21-7.08,5.37-12.99,12.45-13.2.11,0,.22,0,.34,0ZM78,64.29c.06-5.88-4.35-10.66-9.96-10.78-5.51-.12-9.93,4.33-10.07,10.1-.13,5.56,4.64,10.46,10.24,10.52,5.31.07,9.73-4.37,9.78-9.84Z"/>
    <path class="st1" d="M15.8,134.36h0l.13.1c-4.1,1.73-7.78,4.32-10.78,7.6.49.47,1,.92,1.53,1.34,4.2-4.21,9.92-6.55,15.87-6.47,8.02.04,14.44,3.81,18.18,10.16h2.71c-4.81-8.32-14.34-13.22-24.35-12.3-1.01.09-2.05-.22-3.08-.4l.27-.19-.48.15v.02Z"/>
    <path class="st1" d="M153.35,130.44c-.87-.2-1.82-.03-3.21-.03l11.58,12.71c-2.28.18-3.71.38-5.14.39-15.24.08-30.48.26-45.73.06-2.56-.03-5.21-1.48-7.6-2.67-1.83-.93-3.44-2.41-4.95-3.85-9.16-8.78-20.45-11.5-32.67-11.48-5.03,0-10.07.24-15.09.47-1.24.05-2.8.07-3.61.79-3.79,3.31-8.32,2.04-12.6,2.55-4.82.58-9.61,1.41-14.35,2.48-1.34.3-2.48,1.48-3.69,2.37,13.37-4.38,24.95,3.49,30.04,12.88h21.22c-3.52-7.21-10.37-13.53-20.27-18.18,9.4-1.88,3.91-1.82,12.62-.66,2.81.37,5.7,2.98,7.82,5.25,4.18,4.49,8.31,9.01,12.39,13.58h97.59c-5.65-8.5-14.38-14.46-24.34-16.63Z"/>
    <path class="st1" d="M92.44,127.48c2.73,2.14,5.35,4.44,8.23,6.28,1.64.99,3.52,1.52,5.44,1.55,11.04.12,22.07.04,33.11.03h10.5c-4.21-3.28-8.19-6.83-14.1-7.06-14.33-.56-28.65-1.28-42.98-1.94-.07.38-.14.76-.2,1.14Z"/>
    <ellipse class="st1" cx="132.5" cy="63.37" rx="4.02" ry="5.93"/>
    <ellipse class="st1" cx="161.73" cy="63.37" rx="4.02" ry="5.93"/>
    <circle class="st1" cx="91.01" cy="-5.81" r="5.81"/>
    <circle class="st1" cx="124.7" cy="2.26" r="5.81"/>
  </g>
  <g>
    <path d="M220.48,108.97c-.6.48-1.49.71-2.38.71-2.32,0-3.65-1.23-3.65-3.57v-5.1h-1.75v-1.98h1.75v-2.42h2.48v2.42h2.84v1.98h-2.84v5.04c0,1.03.52,1.59,1.47,1.59.52,0,1.01-.14,1.39-.44l.69,1.77Z"/>
    <path d="M232.96,103.47v6.07h-2.48v-5.76c0-1.88-.93-2.8-2.52-2.8-1.77,0-2.96,1.07-2.96,3.2v5.36h-2.48v-14.73h2.48v5.36c.81-.87,2.06-1.35,3.53-1.35,2.54,0,4.43,1.45,4.43,4.65Z"/>
    <path d="M246.14,105.04h-8.32c.3,1.55,1.59,2.54,3.43,2.54,1.19,0,2.12-.38,2.88-1.15l1.33,1.53c-.95,1.13-2.44,1.73-4.27,1.73-3.55,0-5.86-2.28-5.86-5.44s2.32-5.42,5.48-5.42,5.36,2.16,5.36,5.48c0,.2-.02.5-.04.74ZM237.8,103.39h6.02c-.2-1.53-1.37-2.58-3-2.58s-2.78,1.03-3.02,2.58Z"/>
    <path d="M263.29,106.33h-6.95l-1.37,3.22h-2.66l6.25-13.9h2.54l6.27,13.9h-2.7l-1.39-3.22ZM262.43,104.3l-2.62-6.07-2.6,6.07h5.22Z"/>
    <path d="M269.14,95.65h2.58v13.9h-2.58v-13.9Z"/>
    <path d="M280.71,94.82h2.48v14.73h-2.48v-14.73Z"/>
    <path d="M295.32,103.33v6.21h-2.34v-1.29c-.6.91-1.75,1.43-3.33,1.43-2.42,0-3.95-1.33-3.95-3.18s1.19-3.16,4.41-3.16h2.74v-.16c0-1.45-.87-2.3-2.64-2.3-1.19,0-2.42.4-3.22,1.05l-.97-1.81c1.13-.87,2.78-1.31,4.49-1.31,3.06,0,4.82,1.45,4.82,4.51ZM292.84,106.23v-1.23h-2.56c-1.69,0-2.14.63-2.14,1.41,0,.89.75,1.47,2.02,1.47s2.26-.56,2.68-1.65Z"/>
    <path d="M309.75,104.25c0,3.29-2.28,5.44-5.38,5.44-1.45,0-2.68-.5-3.51-1.51v1.37h-2.36v-14.73h2.48v5.42c.85-.95,2.04-1.41,3.39-1.41,3.1,0,5.38,2.12,5.38,5.42ZM307.23,104.25c0-2.03-1.35-3.31-3.14-3.31s-3.16,1.29-3.16,3.31,1.37,3.31,3.16,3.31,3.14-1.29,3.14-3.31Z"/>
    <path d="M335.31,103.47v6.07h-2.48v-5.76c0-1.88-.87-2.8-2.38-2.8-1.63,0-2.76,1.07-2.76,3.18v5.38h-2.48v-5.76c0-1.88-.87-2.8-2.38-2.8-1.65,0-2.76,1.07-2.76,3.18v5.38h-2.48v-10.6h2.36v1.35c.79-.95,2.02-1.47,3.47-1.47,1.55,0,2.84.58,3.57,1.77.85-1.09,2.28-1.77,3.97-1.77,2.56,0,4.35,1.45,4.35,4.65Z"/>
    <path d="M347.36,103.33v6.21h-2.34v-1.29c-.6.91-1.75,1.43-3.33,1.43-2.42,0-3.95-1.33-3.95-3.18s1.19-3.16,4.41-3.16h2.74v-.16c0-1.45-.87-2.3-2.64-2.3-1.19,0-2.42.4-3.22,1.05l-.97-1.81c1.13-.87,2.78-1.31,4.49-1.31,3.06,0,4.82,1.45,4.82,4.51ZM344.88,106.23v-1.23h-2.56c-1.69,0-2.14.63-2.14,1.41,0,.89.75,1.47,2.02,1.47s2.26-.56,2.68-1.65Z"/>
    <path d="M360.97,103.47v6.07h-2.48v-5.76c0-1.88-.93-2.8-2.52-2.8-1.77,0-2.96,1.07-2.96,3.2v5.36h-2.48v-10.6h2.36v1.37c.81-.97,2.1-1.49,3.65-1.49,2.54,0,4.43,1.45,4.43,4.65Z"/>
    <path d="M373,103.33v6.21h-2.34v-1.29c-.6.91-1.75,1.43-3.33,1.43-2.42,0-3.95-1.33-3.95-3.18s1.19-3.16,4.41-3.16h2.74v-.16c0-1.45-.87-2.3-2.64-2.3-1.19,0-2.42.4-3.22,1.05l-.97-1.81c1.13-.87,2.78-1.31,4.49-1.31,3.06,0,4.82,1.45,4.82,4.51ZM370.52,106.23v-1.23h-2.56c-1.69,0-2.14.63-2.14,1.41,0,.89.75,1.47,2.02,1.47s2.26-.56,2.68-1.65Z"/>
    <path d="M386.79,98.94v8.99c0,3.85-2,5.6-5.72,5.6-1.99,0-3.95-.52-5.16-1.51l1.11-1.87c.93.77,2.44,1.27,3.91,1.27,2.34,0,3.38-1.07,3.38-3.21v-.56c-.87.95-2.12,1.41-3.55,1.41-3.04,0-5.36-2.06-5.36-5.14s2.32-5.1,5.36-5.1c1.49,0,2.8.48,3.67,1.53v-1.41h2.36ZM384.35,103.93c0-1.79-1.35-3-3.22-3s-3.24,1.21-3.24,3,1.35,3.04,3.24,3.04,3.22-1.23,3.22-3.04Z"/>
    <path d="M399.97,105.04h-8.32c.3,1.55,1.59,2.54,3.43,2.54,1.19,0,2.12-.38,2.88-1.15l1.33,1.53c-.95,1.13-2.44,1.73-4.27,1.73-3.55,0-5.86-2.28-5.86-5.44s2.32-5.42,5.48-5.42,5.36,2.16,5.36,5.48c0,.2-.02.5-.04.74ZM391.63,103.39h6.02c-.2-1.53-1.37-2.58-3-2.58s-2.78,1.03-3.02,2.58Z"/>
    <path d="M408.52,98.83v2.36c-.22-.04-.4-.06-.58-.06-1.89,0-3.08,1.11-3.08,3.28v5.14h-2.48v-10.6h2.36v1.55c.71-1.11,2-1.67,3.77-1.67Z"/>
  </g>
  <g>
    <path class="st0" d="M237.63,67.08v15.89h-5.95v-3.3c-1.51,2.34-4.43,3.66-8.46,3.66-6.15,0-10.03-3.4-10.03-8.12s3.02-8.07,11.19-8.07h6.95v-.41c0-3.71-2.22-5.89-6.7-5.89-3.02,0-6.15,1.02-8.16,2.69l-2.47-4.62c2.87-2.23,7.05-3.35,11.39-3.35,7.76,0,12.24,3.71,12.24,11.53ZM231.33,74.49v-3.15h-6.5c-4.28,0-5.44,1.62-5.44,3.61,0,2.29,1.92,3.76,5.14,3.76s5.74-1.42,6.8-4.21Z"/>
    <path class="st0" d="M271.74,55.85v27.12h-6v-3.45c-2.02,2.49-5.19,3.81-8.67,3.81-6.9,0-11.59-3.81-11.59-11.98v-15.49h6.3v14.62c0,4.93,2.32,7.26,6.3,7.26,4.38,0,7.36-2.74,7.36-8.18v-13.71h6.3Z"/>
    <path class="st0" d="M296.17,81.5c-1.51,1.22-3.78,1.83-6.05,1.83-5.89,0-9.27-3.15-9.27-9.14v-13.05h-4.43v-5.08h4.43v-6.2h6.3v6.2h7.21v5.08h-7.21v12.9c0,2.64,1.31,4.06,3.73,4.06,1.31,0,2.57-.36,3.53-1.12l1.76,4.52Z"/>
    <path class="st0" d="M298.24,69.41c0-8.12,6.05-13.86,14.31-13.86s14.36,5.74,14.36,13.86-6,13.91-14.36,13.91-14.31-5.79-14.31-13.91ZM320.56,69.41c0-5.18-3.43-8.48-8.01-8.48s-7.96,3.3-7.96,8.48,3.43,8.48,7.96,8.48,8.01-3.3,8.01-8.48Z"/>
    <path class="st0" d="M332.95,45.29h6.3v37.68h-6.3v-37.68Z"/>
    <path class="st0" d="M370.03,67.08v15.89h-5.95v-3.3c-1.51,2.34-4.43,3.66-8.46,3.66-6.15,0-10.03-3.4-10.03-8.12s3.02-8.07,11.19-8.07h6.95v-.41c0-3.71-2.22-5.89-6.7-5.89-3.02,0-6.15,1.02-8.16,2.69l-2.47-4.62c2.87-2.23,7.05-3.35,11.39-3.35,7.76,0,12.24,3.71,12.24,11.53ZM363.74,74.49v-3.15h-6.5c-4.28,0-5.44,1.62-5.44,3.61,0,2.29,1.92,3.76,5.14,3.76s5.74-1.42,6.8-4.21Z"/>
    <path class="st0" d="M406.66,69.41c0,8.43-5.79,13.91-13.65,13.91-3.68,0-6.8-1.27-8.92-3.86v3.5h-6v-37.68h6.3v13.86c2.17-2.44,5.19-3.61,8.62-3.61,7.86,0,13.65,5.43,13.65,13.86ZM400.26,69.41c0-5.18-3.43-8.48-7.96-8.48s-8.01,3.3-8.01,8.48,3.48,8.48,8.01,8.48,7.96-3.3,7.96-8.48Z"/>
  </g>
</svg>