<?xml version="1.0" encoding="UTF-8"?>
<svg id="a" data-name="Layer 1" xmlns="http://www.w3.org/2000/svg" xmlns:xlink="http://www.w3.org/1999/xlink" viewBox="0 0 989.42 1110.06">
  <defs>
    <style>
      .c {
        fill: url(#b);
        stroke-width: 0px;
      }
    </style>
    <linearGradient id="b" x1="48.56" y1="-79.94" x2="836.73" y2="1122.03" gradientUnits="userSpaceOnUse">
      <stop offset="0" stop-color="#00aeef"/>
      <stop offset="1" stop-color="#39b54a"/>
    </linearGradient>
  </defs>
  <path class="c" d="M434.39,0h-215.95v163.98c-29.72,16.45-57.37,36.18-82.45,58.71-7.83-1.73-15.97-2.65-24.33-2.65C49.99,220.04,0,270.03,0,331.71c0,22.52,6.66,43.48,18.15,61.02,19.93,30.49,54.36,50.64,93.51,50.64,2.31,0,4.6-.07,6.87-.21,58.48-3.54,104.8-52.09,104.8-111.45,0-11.41-1.71-22.43-4.9-32.8,58.32-49.2,133.66-78.87,215.95-78.87,165.99,0,303.79,120.73,330.36,279.16h-233.64c-19.3-33.38-55.4-55.83-96.73-55.83s-77.42,22.45-96.73,55.83c-9.49,16.42-14.93,35.49-14.93,55.83s5.44,39.41,14.93,55.83c19.3,33.38,55.4,55.83,96.73,55.83s77.42-22.45,96.73-55.83h233.64c-26.57,158.44-164.37,279.15-330.36,279.15-82.27,0-157.62-29.65-215.93-78.87,3.16-10.37,4.88-21.38,4.88-32.79,0-59.36-46.32-107.9-104.8-111.44-2.27-.15-4.57-.21-6.87-.21-39.15,0-73.58,20.14-93.51,50.64-11.49,17.54-18.15,38.51-18.15,61.02,0,61.68,49.99,111.66,111.66,111.66,8.36,0,16.48-.92,24.31-2.65,25.08,22.54,52.74,42.27,82.47,58.73v163.98h215.95c306.54,0,555.03-248.49,555.03-555.03S740.93,0,434.39,0ZM111.66,359.62c-15.41,0-27.91-12.49-27.91-27.91s12.49-27.92,27.91-27.92,27.92,12.49,27.92,27.92-12.49,27.91-27.92,27.91ZM434.39,582.94c-15.41,0-27.92-12.49-27.92-27.91s12.51-27.92,27.92-27.92,27.92,12.51,27.92,27.92-12.51,27.91-27.92,27.91ZM111.66,806.27c-15.41,0-27.91-12.49-27.91-27.92s12.49-27.91,27.91-27.91,27.92,12.49,27.92,27.91-12.49,27.92-27.92,27.92Z"/>
</svg>