<?xml version="1.0" encoding="UTF-8"?>
<svg id="Layer_1" xmlns="http://www.w3.org/2000/svg" version="1.1" viewBox="0 0 187 147">
  <!-- Generator: Adobe Illustrator 29.6.0, SVG Export Plug-In . SVG Version: 2.1.1 Build 207)  -->
  <defs>
    <style>
      .st0 {
        fill: #3075ba;
      }

      .st1 {
        fill: #fff;
      }

      .st2 {
        fill: #3b3838;
      }
    </style>
  </defs>
  <rect class="st0" y="11.86" width="187" height="135.15" rx="16.09" ry="16.09"/>
  <path class="st2" d="M150.44,134.86l-3.62-1.21c-10.12-3.89-15.17-5.11-29.57-5.01-22.13.15-43.95-2.43-65.25-.64-27.79,2.34-35.81,3.89-47.23,13.74,2.92,3.91,6.06,5.26,11.3,5.26h142.83c-2.12-4.48-4.66-8.69-8.47-12.14Z"/>
  <rect class="st2" x="72.25" y="97.67" width="29.4" height="30.93"/>
  <rect class="st2" x="34.13" y="39.97" width="125.2" height="61.87" rx="12.93" ry="12.93"/>
  <path class="st1" d="M83.22,11.26c0-2.75.06-2.75,3.21-2.31v27.34h27.24V15.12c3.43-.15,3.52-.15,3.55,2.48.06,6.18,0,12.35,0,18.96,9.41,0,18.3-.06,27.2,0,9.41.08,16.23,5.21,17.02,14.61.96,11.43.5,22.98.5,34.47,0,2.14-.71,4.35-1.44,6.4-2.24,6.36-7.09,9.77-13.81,9.77-11.79,0-23.57-.05-35.36-.07h-19.32q5.04-4.87,5.05-11.53c0-9.71.03-19.43-.05-29.14.02-2.84-.21-5.67-.7-8.47-1.81-9.34-6.6-13.33-16.09-13.43-10.49-.11-20.98-.13-31.47-.1-8.1,0-13.12,5.05-13.13,13.06,0,12.04.02,24.09.06,36.13.04,7.86,3.18,11.1,11.06,11.18,12.04.13,24.1.17,36.15.12,6.93,0,8.88-2.07,8.91-9.15.05-10.23-.08-20.46.07-30.71.09-6.39-.29-12.53-5.19-17.47,4.65,2.34,7.1,6.36,7.21,11.09.33,13.72.25,27.45.1,41.18-.04,4.03-2.75,6.57-6.66,6.64-13.98.22-27.97.47-41.95.33-7.43-.07-11.63-4.24-11.79-11.61-.28-13.07-.31-26.15-.07-39.24.12-7.25,5.69-12.94,12.94-13.6,3.96-.37,8.02-.17,12.03-.18h24.7c0-8.8-.02-17.18,0-25.57ZM119.59,54.94c-4.85-.44-9.38,4.77-10.4,11.99-.64,4.55.24,8.76,3.02,12.45,3.09,4.1,8.02,4.46,11.8,1.02,3.17-2.9,5.03-7.43,5-12.16-.03-7-4.16-12.82-9.41-13.29ZM139.83,79.55c2.63,3.91,7.39,3.91,10.75.63,5.2-5.07,6.28-14.73,2.35-20.8s-10.99-5.84-14.08.71c-.55,1.2-.98,2.46-1.29,3.74-1.3,4.77-.79,9.86,1.43,14.28.26.49.54.97.85,1.44h0Z"/>
  <path class="st1" d="M109.27,122.47c-.82.66-1.63,1.9-2.45,1.91-13.95.09-27.89.06-41.84-.07-.68,0-1.36-1.03-2.03-1.58.65-.44,1.26-1.17,1.95-1.25,2.62-.31,5.26-.42,7.96-.6v-8.97l-3.96-1.35c.07-.3.14-.6.21-.9h33.18v11.6h6.1l.88,1.21ZM76.38,112.15v8.58h21.34v-8.58h-21.34Z"/>
  <path class="st1" d="M62.88,57.59c6.64-.12,11.73,5.11,11.85,12.17.12,6.66-4.73,12.16-10.86,12.31-6.85.23-12.6-5.13-12.83-11.99,0-.09,0-.18,0-.27-.19-6.56,4.97-12.04,11.53-12.23.1,0,.21,0,.31,0ZM72.25,70.32c.05-5.45-4.03-9.88-9.22-9.98-5.1-.11-9.2,4.01-9.33,9.36-.12,5.15,4.3,9.69,9.49,9.75,4.92.06,9.01-4.05,9.06-9.12Z"/>
  <path class="st1" d="M14.64,135.22h0l.12.09c-3.8,1.6-7.2,4-9.99,7.04.45.44.92.85,1.42,1.24,3.89-3.9,9.19-6.06,14.7-5.99,7.43.03,13.37,3.53,16.84,9.41h2.51c-4.46-7.71-13.28-12.24-22.55-11.39-.93.08-1.9-.21-2.85-.37l.25-.18-.44.14h0Z"/>
  <path class="st1" d="M142.05,131.6c-.8-.18-1.68-.02-2.97-.02l10.72,11.77c-2.11.17-3.44.36-4.76.36-14.12.07-28.23.24-42.36.06-2.37-.03-4.82-1.37-7.04-2.48-1.69-.86-3.19-2.23-4.59-3.57-8.49-8.14-18.94-10.65-30.26-10.64-4.66,0-9.33.22-13.98.43-1.14.05-2.6.06-3.35.73-3.51,3.07-7.71,1.89-11.67,2.36-4.47.54-8.9,1.31-13.29,2.3-1.24.28-2.3,1.37-3.42,2.19,12.38-4.06,23.11,3.23,27.82,11.93h19.66c-3.26-6.68-9.6-12.53-18.78-16.84,8.71-1.74,3.63-1.68,11.69-.61,2.61.35,5.28,2.76,7.24,4.86,3.87,4.16,7.7,8.35,11.48,12.57h90.4c-5.23-7.87-13.32-13.4-22.55-15.41Z"/>
  <path class="st1" d="M85.63,128.85c2.53,1.98,4.95,4.11,7.63,5.81,1.52.91,3.26,1.41,5.04,1.43,10.22.11,20.44.04,30.67.03h9.73c-3.9-3.04-7.59-6.33-13.06-6.54-13.27-.52-26.54-1.18-39.81-1.79-.07.35-.13.7-.18,1.06Z"/>
  <ellipse class="st1" cx="122.74" cy="69.47" rx="3.72" ry="5.49"/>
  <ellipse class="st1" cx="149.81" cy="69.47" rx="3.72" ry="5.49"/>
  <circle class="st1" cx="84.3" cy="5.38" r="5.38"/>
  <circle class="st1" cx="115.5" cy="12.86" r="5.38"/>
</svg>